<svg width="104" height="223" viewBox="0 0 104 223" fill="none" xmlns="http://www.w3.org/2000/svg">
<g clip-path="url(#clip0_1_3)">
<rect y="6.5" width="104" height="210" fill="#D9D9D9"/>
<g style="mix-blend-mode:soft-light" opacity="0.5">
<path d="M23.8397 43.7887L32 39.0774L40.1603 43.7887V53.2113L32 57.9227L23.8397 53.2113V43.7887Z" stroke="black"/>
</g>
<g style="mix-blend-mode:soft-light" opacity="0.5">
<path d="M-0.160254 85.7887L8 81.0774L16.1603 85.7887V95.2113L8 99.9227L-0.160254 95.2113V85.7887Z" stroke="black"/>
</g>
<g style="mix-blend-mode:soft-light" opacity="0.5">
<path d="M87.8397 99.7887L96 95.0774L104.16 99.7887V109.211L96 113.923L87.8397 109.211V99.7887Z" stroke="black"/>
</g>
<g style="mix-blend-mode:soft-light" opacity="0.5">
<path d="M71.8397 99.7887L80 95.0774L88.1603 99.7887V109.211L80 113.923L71.8397 109.211V99.7887Z" stroke="black"/>
</g>
<g style="mix-blend-mode:soft-light" opacity="0.5">
<path d="M55.8397 99.7887L64 95.0774L72.1603 99.7887V109.211L64 113.923L55.8397 109.211V99.7887Z" stroke="black"/>
</g>
<g style="mix-blend-mode:soft-light" opacity="0.5">
<path d="M39.8397 99.7887L48 95.0774L56.1603 99.7887V109.211L48 113.923L39.8397 109.211V99.7887Z" stroke="black"/>
</g>
<g style="mix-blend-mode:soft-light" opacity="0.5">
<path d="M23.8397 99.7887L32 95.0774L40.1603 99.7887V109.211L32 113.923L23.8397 109.211V99.7887Z" stroke="black"/>
</g>
<g style="mix-blend-mode:soft-light" opacity="0.5">
<path d="M7.83975 99.7887L16 95.0774L24.1603 99.7887V109.211L16 113.923L7.83975 109.211V99.7887Z" stroke="black"/>
</g>
<g style="mix-blend-mode:soft-light" opacity="0.5">
<path d="M-8.16025 99.7887L0 95.0774L8.16026 99.7887V109.211L0 113.923L-8.16025 109.211V99.7887Z" stroke="black"/>
</g>
<g style="mix-blend-mode:soft-light" opacity="0.5">
<path d="M79.8397 113.789L88 109.077L96.1603 113.789V123.211L88 127.923L79.8397 123.211V113.789Z" stroke="black"/>
</g>
<g style="mix-blend-mode:soft-light" opacity="0.5">
<path d="M95.8397 113.789L104 109.077L112.16 113.789V123.211L104 127.923L95.8397 123.211V113.789Z" stroke="black"/>
</g>
<g style="mix-blend-mode:soft-light" opacity="0.5">
<path d="M63.8397 113.789L72 109.077L80.1603 113.789V123.211L72 127.923L63.8397 123.211V113.789Z" stroke="black"/>
</g>
<g style="mix-blend-mode:soft-light" opacity="0.5">
<path d="M47.8397 113.789L56 109.077L64.1603 113.789V123.211L56 127.923L47.8397 123.211V113.789Z" stroke="black"/>
</g>
<g style="mix-blend-mode:soft-light" opacity="0.5">
<path d="M31.8397 113.789L40 109.077L48.1603 113.789V123.211L40 127.923L31.8397 123.211V113.789Z" stroke="black"/>
</g>
<g style="mix-blend-mode:soft-light" opacity="0.5">
<path d="M15.8397 113.789L24 109.077L32.1603 113.789V123.211L24 127.923L15.8397 123.211V113.789Z" stroke="black"/>
</g>
<g style="mix-blend-mode:soft-light" opacity="0.5">
<path d="M-0.160254 113.789L8 109.077L16.1603 113.789V123.211L8 127.923L-0.160254 123.211V113.789Z" stroke="black"/>
</g>
<g style="mix-blend-mode:soft-light" opacity="0.5">
<path d="M87.8397 127.789L96 123.077L104.16 127.789V137.211L96 141.923L87.8397 137.211V127.789Z" stroke="black"/>
</g>
<g style="mix-blend-mode:soft-light" opacity="0.5">
<path d="M71.8397 127.789L80 123.077L88.1603 127.789V137.211L80 141.923L71.8397 137.211V127.789Z" stroke="black"/>
</g>
<g style="mix-blend-mode:soft-light" opacity="0.5">
<path d="M55.8397 127.789L64 123.077L72.1603 127.789V137.211L64 141.923L55.8397 137.211V127.789Z" stroke="black"/>
</g>
<g style="mix-blend-mode:soft-light" opacity="0.5">
<path d="M39.8397 127.789L48 123.077L56.1603 127.789V137.211L48 141.923L39.8397 137.211V127.789Z" stroke="black"/>
</g>
<g style="mix-blend-mode:soft-light" opacity="0.5">
<path d="M23.8397 127.789L32 123.077L40.1603 127.789V137.211L32 141.923L23.8397 137.211V127.789Z" stroke="black"/>
</g>
<g style="mix-blend-mode:soft-light" opacity="0.5">
<path d="M7.83975 127.789L16 123.077L24.1603 127.789V137.211L16 141.923L7.83975 137.211V127.789Z" stroke="black"/>
</g>
<g style="mix-blend-mode:soft-light" opacity="0.5">
<path d="M-8.16025 127.789L0 123.077L8.16026 127.789V137.211L0 141.923L-8.16025 137.211V127.789Z" stroke="black"/>
</g>
<g style="mix-blend-mode:soft-light" opacity="0.5">
<path d="M79.8397 141.789L88 137.077L96.1603 141.789V151.211L88 155.923L79.8397 151.211V141.789Z" stroke="black"/>
</g>
<g style="mix-blend-mode:soft-light" opacity="0.5">
<path d="M95.8397 141.789L104 137.077L112.16 141.789V151.211L104 155.923L95.8397 151.211V141.789Z" stroke="black"/>
</g>
<g style="mix-blend-mode:soft-light" opacity="0.5">
<path d="M63.8397 141.789L72 137.077L80.1603 141.789V151.211L72 155.923L63.8397 151.211V141.789Z" stroke="black"/>
</g>
<g style="mix-blend-mode:soft-light" opacity="0.5">
<path d="M47.8397 141.789L56 137.077L64.1603 141.789V151.211L56 155.923L47.8397 151.211V141.789Z" stroke="black"/>
</g>
<g style="mix-blend-mode:soft-light" opacity="0.5">
<path d="M31.8397 141.789L40 137.077L48.1603 141.789V151.211L40 155.923L31.8397 151.211V141.789Z" stroke="black"/>
</g>
<g style="mix-blend-mode:soft-light" opacity="0.5">
<path d="M15.8397 141.789L24 137.077L32.1603 141.789V151.211L24 155.923L15.8397 151.211V141.789Z" stroke="black"/>
</g>
<g style="mix-blend-mode:soft-light" opacity="0.5">
<path d="M-0.160254 141.789L8 137.077L16.1603 141.789V151.211L8 155.923L-0.160254 151.211V141.789Z" stroke="black"/>
</g>
<g style="mix-blend-mode:soft-light" opacity="0.5">
<path d="M87.8397 155.789L96 151.077L104.16 155.789V165.211L96 169.923L87.8397 165.211V155.789Z" stroke="black"/>
</g>
<g style="mix-blend-mode:soft-light" opacity="0.5">
<path d="M71.8397 155.789L80 151.077L88.1603 155.789V165.211L80 169.923L71.8397 165.211V155.789Z" stroke="black"/>
</g>
<g style="mix-blend-mode:soft-light" opacity="0.5">
<path d="M55.8397 155.789L64 151.077L72.1603 155.789V165.211L64 169.923L55.8397 165.211V155.789Z" stroke="black"/>
</g>
<g style="mix-blend-mode:soft-light" opacity="0.5">
<path d="M39.8397 155.789L48 151.077L56.1603 155.789V165.211L48 169.923L39.8397 165.211V155.789Z" stroke="black"/>
</g>
<g style="mix-blend-mode:soft-light" opacity="0.5">
<path d="M23.8397 155.789L32 151.077L40.1603 155.789V165.211L32 169.923L23.8397 165.211V155.789Z" stroke="black"/>
</g>
<g style="mix-blend-mode:soft-light" opacity="0.5">
<path d="M7.83975 155.789L16 151.077L24.1603 155.789V165.211L16 169.923L7.83975 165.211V155.789Z" stroke="black"/>
</g>
<g style="mix-blend-mode:soft-light" opacity="0.5">
<path d="M-8.16025 155.789L0 151.077L8.16026 155.789V165.211L0 169.923L-8.16025 165.211V155.789Z" stroke="black"/>
</g>
<g style="mix-blend-mode:soft-light" opacity="0.5">
<path d="M79.8397 169.789L88 165.077L96.1603 169.789V179.211L88 183.923L79.8397 179.211V169.789Z" stroke="black"/>
</g>
<g style="mix-blend-mode:soft-light" opacity="0.5">
<path d="M95.8397 169.789L104 165.077L112.16 169.789V179.211L104 183.923L95.8397 179.211V169.789Z" stroke="black"/>
</g>
<g style="mix-blend-mode:soft-light" opacity="0.5">
<path d="M63.8397 169.789L72 165.077L80.1603 169.789V179.211L72 183.923L63.8397 179.211V169.789Z" stroke="black"/>
</g>
<g style="mix-blend-mode:soft-light" opacity="0.5">
<path d="M47.8397 169.789L56 165.077L64.1603 169.789V179.211L56 183.923L47.8397 179.211V169.789Z" stroke="black"/>
</g>
<g style="mix-blend-mode:soft-light" opacity="0.5">
<path d="M31.8397 169.789L40 165.077L48.1603 169.789V179.211L40 183.923L31.8397 179.211V169.789Z" stroke="black"/>
</g>
<g style="mix-blend-mode:soft-light" opacity="0.5">
<path d="M15.8397 169.789L24 165.077L32.1603 169.789V179.211L24 183.923L15.8397 179.211V169.789Z" stroke="black"/>
</g>
<g style="mix-blend-mode:soft-light" opacity="0.5">
<path d="M-0.160254 169.789L8 165.077L16.1603 169.789V179.211L8 183.923L-0.160254 179.211V169.789Z" stroke="black"/>
</g>
<g style="mix-blend-mode:soft-light" opacity="0.5">
<path d="M87.8397 183.789L96 179.077L104.16 183.789V193.211L96 197.923L87.8397 193.211V183.789Z" stroke="black"/>
</g>
<g style="mix-blend-mode:soft-light" opacity="0.5">
<path d="M71.8397 183.789L80 179.077L88.1603 183.789V193.211L80 197.923L71.8397 193.211V183.789Z" stroke="black"/>
</g>
<g style="mix-blend-mode:soft-light" opacity="0.5">
<path d="M55.8397 183.789L64 179.077L72.1603 183.789V193.211L64 197.923L55.8397 193.211V183.789Z" stroke="black"/>
</g>
<g style="mix-blend-mode:soft-light" opacity="0.5">
<path d="M39.8397 183.789L48 179.077L56.1603 183.789V193.211L48 197.923L39.8397 193.211V183.789Z" stroke="black"/>
</g>
<g style="mix-blend-mode:soft-light" opacity="0.5">
<path d="M23.8397 183.789L32 179.077L40.1603 183.789V193.211L32 197.923L23.8397 193.211V183.789Z" stroke="black"/>
</g>
<g style="mix-blend-mode:soft-light" opacity="0.5">
<path d="M7.83975 183.789L16 179.077L24.1603 183.789V193.211L16 197.923L7.83975 193.211V183.789Z" stroke="black"/>
</g>
<g style="mix-blend-mode:soft-light" opacity="0.5">
<path d="M-8.16025 183.789L0 179.077L8.16026 183.789V193.211L0 197.923L-8.16025 193.211V183.789Z" stroke="black"/>
</g>
<g style="mix-blend-mode:soft-light" opacity="0.5">
<path d="M79.8397 197.789L88 193.077L96.1603 197.789V207.211L88 211.923L79.8397 207.211V197.789Z" stroke="black"/>
</g>
<g style="mix-blend-mode:soft-light" opacity="0.5">
<path d="M95.8397 197.789L104 193.077L112.16 197.789V207.211L104 211.923L95.8397 207.211V197.789Z" stroke="black"/>
</g>
<g style="mix-blend-mode:soft-light" opacity="0.5">
<path d="M63.8397 197.789L72 193.077L80.1603 197.789V207.211L72 211.923L63.8397 207.211V197.789Z" stroke="black"/>
</g>
<g style="mix-blend-mode:soft-light" opacity="0.5">
<path d="M47.8397 197.789L56 193.077L64.1603 197.789V207.211L56 211.923L47.8397 207.211V197.789Z" stroke="black"/>
</g>
<g style="mix-blend-mode:soft-light" opacity="0.5">
<path d="M31.8397 197.789L40 193.077L48.1603 197.789V207.211L40 211.923L31.8397 207.211V197.789Z" stroke="black"/>
</g>
<g style="mix-blend-mode:soft-light" opacity="0.5">
<path d="M15.8397 197.789L24 193.077L32.1603 197.789V207.211L24 211.923L15.8397 207.211V197.789Z" stroke="black"/>
</g>
<g style="mix-blend-mode:soft-light" opacity="0.5">
<path d="M-0.160254 197.789L8 193.077L16.1603 197.789V207.211L8 211.923L-0.160254 207.211V197.789Z" stroke="black"/>
</g>
<g style="mix-blend-mode:soft-light" opacity="0.5">
<path d="M-0.160254 29.7887L8 25.0774L16.1603 29.7887V39.2113L8 43.9227L-0.160254 39.2113V29.7887Z" stroke="black"/>
</g>
<g style="mix-blend-mode:soft-light" opacity="0.5">
<path d="M7.83975 43.7887L16 39.0774L24.1603 43.7887V53.2113L16 57.9227L7.83975 53.2113V43.7887Z" stroke="black"/>
</g>
<g style="mix-blend-mode:soft-light" opacity="0.5">
<path d="M79.8397 57.7887L88 53.0774L96.1603 57.7887V67.2113L88 71.9227L79.8397 67.2113V57.7887Z" stroke="black"/>
</g>
<g style="mix-blend-mode:soft-light" opacity="0.5">
<path d="M95.8397 57.7887L104 53.0774L112.16 57.7887V67.2113L104 71.9227L95.8397 67.2113V57.7887Z" stroke="black"/>
</g>
<g style="mix-blend-mode:soft-light" opacity="0.5">
<path d="M63.8397 57.7887L72 53.0774L80.1603 57.7887V67.2113L72 71.9227L63.8397 67.2113V57.7887Z" stroke="black"/>
</g>
<g style="mix-blend-mode:soft-light" opacity="0.5">
<path d="M47.8397 57.7887L56 53.0774L64.1603 57.7887V67.2113L56 71.9227L47.8397 67.2113V57.7887Z" stroke="black"/>
</g>
<g style="mix-blend-mode:soft-light" opacity="0.5">
<path d="M31.8397 57.7887L40 53.0774L48.1603 57.7887V67.2113L40 71.9227L31.8397 67.2113V57.7887Z" stroke="black"/>
</g>
<g style="mix-blend-mode:soft-light" opacity="0.5">
<path d="M15.8397 57.7887L24 53.0774L32.1603 57.7887V67.2113L24 71.9227L15.8397 67.2113V57.7887Z" stroke="black"/>
</g>
<g style="mix-blend-mode:soft-light" opacity="0.5">
<path d="M-0.160254 57.7887L8 53.0774L16.1603 57.7887V67.2113L8 71.9227L-0.160254 67.2113V57.7887Z" stroke="black"/>
</g>
<g style="mix-blend-mode:soft-light" opacity="0.5">
<path d="M-8.16025 43.7887L0 39.0774L8.16026 43.7887V53.2113L0 57.9227L-8.16025 53.2113V43.7887Z" stroke="black"/>
</g>
<g style="mix-blend-mode:soft-light" opacity="0.5">
<path d="M87.8397 71.7887L96 67.0774L104.16 71.7887V81.2113L96 85.9227L87.8397 81.2113V71.7887Z" stroke="black"/>
</g>
<g style="mix-blend-mode:soft-light" opacity="0.5">
<path d="M71.8397 71.7887L80 67.0774L88.1603 71.7887V81.2113L80 85.9227L71.8397 81.2113V71.7887Z" stroke="black"/>
</g>
<g style="mix-blend-mode:soft-light" opacity="0.5">
<path d="M55.8397 71.7887L64 67.0774L72.1603 71.7887V81.2113L64 85.9227L55.8397 81.2113V71.7887Z" stroke="black"/>
</g>
<g style="mix-blend-mode:soft-light" opacity="0.5">
<path d="M39.8397 71.7887L48 67.0774L56.1603 71.7887V81.2113L48 85.9227L39.8397 81.2113V71.7887Z" stroke="black"/>
</g>
<g style="mix-blend-mode:soft-light" opacity="0.5">
<path d="M23.8397 71.7887L32 67.0774L40.1603 71.7887V81.2113L32 85.9227L23.8397 81.2113V71.7887Z" stroke="black"/>
</g>
<g style="mix-blend-mode:soft-light" opacity="0.5">
<path d="M7.83975 71.7887L16 67.0774L24.1603 71.7887V81.2113L16 85.9227L7.83975 81.2113V71.7887Z" stroke="black"/>
</g>
<g style="mix-blend-mode:soft-light" opacity="0.5">
<path d="M-8.16025 71.7887L0 67.0774L8.16026 71.7887V81.2113L0 85.9227L-8.16025 81.2113V71.7887Z" stroke="black"/>
</g>
<g style="mix-blend-mode:soft-light" opacity="0.5">
<path d="M79.8397 85.7887L88 81.0774L96.1603 85.7887V95.2113L88 99.9227L79.8397 95.2113V85.7887Z" stroke="black"/>
</g>
<g style="mix-blend-mode:soft-light" opacity="0.5">
<path d="M95.8397 85.7887L104 81.0774L112.16 85.7887V95.2113L104 99.9227L95.8397 95.2113V85.7887Z" stroke="black"/>
</g>
<g style="mix-blend-mode:soft-light" opacity="0.5">
<path d="M63.8397 85.7887L72 81.0774L80.1603 85.7887V95.2113L72 99.9227L63.8397 95.2113V85.7887Z" stroke="black"/>
</g>
<g style="mix-blend-mode:soft-light" opacity="0.5">
<path d="M47.8397 85.7887L56 81.0774L64.1603 85.7887V95.2113L56 99.9227L47.8397 95.2113V85.7887Z" stroke="black"/>
</g>
<g style="mix-blend-mode:soft-light" opacity="0.5">
<path d="M31.8397 85.7887L40 81.0774L48.1603 85.7887V95.2113L40 99.9227L31.8397 95.2113V85.7887Z" stroke="black"/>
</g>
<g style="mix-blend-mode:soft-light" opacity="0.5">
<path d="M15.8397 85.7887L24 81.0774L32.1603 85.7887V95.2113L24 99.9227L15.8397 95.2113V85.7887Z" stroke="black"/>
</g>
<g style="mix-blend-mode:soft-light" opacity="0.5">
<path d="M39.8397 43.7887L48 39.0774L56.1603 43.7887V53.2113L48 57.9227L39.8397 53.2113V43.7887Z" stroke="black"/>
</g>
<g style="mix-blend-mode:soft-light" opacity="0.5">
<path d="M55.8397 43.7887L64 39.0774L72.1603 43.7887V53.2113L64 57.9227L55.8397 53.2113V43.7887Z" stroke="black"/>
</g>
<g style="mix-blend-mode:soft-light" opacity="0.5">
<path d="M71.8397 43.7887L80 39.0774L88.1603 43.7887V53.2113L80 57.9227L71.8397 53.2113V43.7887Z" stroke="black"/>
</g>
<g style="mix-blend-mode:soft-light" opacity="0.5">
<path d="M87.8397 43.7887L96 39.0774L104.16 43.7887V53.2113L96 57.9227L87.8397 53.2113V43.7887Z" stroke="black"/>
</g>
<g style="mix-blend-mode:soft-light" opacity="0.5">
<path d="M15.8397 29.7887L24 25.0774L32.1603 29.7887V39.2113L24 43.9227L15.8397 39.2113V29.7887Z" stroke="black"/>
</g>
<g style="mix-blend-mode:soft-light" opacity="0.5">
<path d="M31.8397 29.7887L40 25.0774L48.1603 29.7887V39.2113L40 43.9227L31.8397 39.2113V29.7887Z" stroke="black"/>
</g>
<g style="mix-blend-mode:soft-light" opacity="0.5">
<path d="M47.8397 29.7887L56 25.0774L64.1603 29.7887V39.2113L56 43.9227L47.8397 39.2113V29.7887Z" stroke="black"/>
</g>
<g style="mix-blend-mode:soft-light" opacity="0.5">
<path d="M63.8397 29.7887L72 25.0774L80.1603 29.7887V39.2113L72 43.9227L63.8397 39.2113V29.7887Z" stroke="black"/>
</g>
<g style="mix-blend-mode:soft-light" opacity="0.5">
<path d="M95.8397 29.7887L104 25.0774L112.16 29.7887V39.2113L104 43.9227L95.8397 39.2113V29.7887Z" stroke="black"/>
</g>
<g style="mix-blend-mode:soft-light" opacity="0.5">
<path d="M79.8397 29.7887L88 25.0774L96.1603 29.7887V39.2113L88 43.9227L79.8397 39.2113V29.7887Z" stroke="black"/>
</g>
<g style="mix-blend-mode:soft-light" opacity="0.5">
<path d="M87.8397 15.7887L96 11.0774L104.16 15.7887V25.2113L96 29.9227L87.8397 25.2113V15.7887Z" stroke="black"/>
</g>
<g style="mix-blend-mode:soft-light" opacity="0.5">
<path d="M71.8397 15.7887L80 11.0774L88.1603 15.7887V25.2113L80 29.9227L71.8397 25.2113V15.7887Z" stroke="black"/>
</g>
<g style="mix-blend-mode:soft-light" opacity="0.5">
<path d="M55.8397 15.7887L64 11.0774L72.1603 15.7887V25.2113L64 29.9227L55.8397 25.2113V15.7887Z" stroke="black"/>
</g>
<g style="mix-blend-mode:soft-light" opacity="0.5">
<path d="M39.8397 15.7887L48 11.0774L56.1603 15.7887V25.2113L48 29.9227L39.8397 25.2113V15.7887Z" stroke="black"/>
</g>
<g style="mix-blend-mode:soft-light" opacity="0.5">
<path d="M23.8397 15.7887L32 11.0774L40.1603 15.7887V25.2113L32 29.9227L23.8397 25.2113V15.7887Z" stroke="black"/>
</g>
<g style="mix-blend-mode:soft-light" opacity="0.5">
<path d="M-8.16025 15.7887L0 11.0774L8.16026 15.7887V25.2113L0 29.9227L-8.16025 25.2113V15.7887Z" stroke="black"/>
</g>
<g style="mix-blend-mode:soft-light" opacity="0.5">
<path d="M7.83975 15.7887L16 11.0774L24.1603 15.7887V25.2113L16 29.9227L7.83975 25.2113V15.7887Z" stroke="black"/>
</g>
<ellipse cx="52" cy="6" rx="52" ry="6" fill="#D9D9D9"/>
<ellipse cx="52" cy="217" rx="52" ry="6" fill="#D9D9D9"/>
<rect y="6" width="104" height="10" fill="black"/>
<rect y="207" width="104" height="10" fill="black"/>
</g>
<defs>
<clipPath id="clip0_1_3">
<rect width="104" height="223" fill="white"/>
</clipPath>
</defs>
</svg>
